<svg xmlns="http://www.w3.org/2000/svg" width="100%" viewBox="0 0 16 18" fill="none"><path d="M1 4.19971H2.55556H15" stroke="currentColor" stroke-width="1.5" stroke-linecap="round" stroke-linejoin="round"></path><path d="M13.4475 4.2V15.4C13.4475 15.8243 13.2836 16.2313 12.9919 16.5314C12.7001 16.8314 12.3045 17 11.8919 17H4.11415C3.70159 17 3.30593 16.8314 3.01421 16.5314C2.72248 16.2313 2.55859 15.8243 2.55859 15.4V4.2M4.89193 4.2V2.6C4.89193 2.17565 5.05582 1.76869 5.34754 1.46863C5.63926 1.16857 6.03492 1 6.44748 1H9.55859C9.97115 1 10.3668 1.16857 10.6585 1.46863C10.9503 1.76869 11.1142 2.17565 11.1142 2.6V4.2" stroke="currentColor" stroke-width="1.5" stroke-linecap="round" stroke-linejoin="round"></path></svg>