<svg xmlns="http://www.w3.org/2000/svg" width="100%" viewBox="0 0 15 25" fill="none"><path d="M11.9892 5.83333H8.65581C8.04214 5.83333 7.5447 6.3308 7.5447 6.94444V10.2778H11.9892C12.1155 10.275 12.2354 10.3338 12.3105 10.4354C12.3856 10.5371 12.4067 10.6689 12.3669 10.7889L11.5447 13.2333C11.4689 13.4577 11.2593 13.6093 11.0225 13.6111H7.5447V21.9444C7.5447 22.2512 7.29592 22.5 6.98914 22.5H4.21137C3.90455 22.5 3.65581 22.2512 3.65581 21.9444V13.6111H1.98915C1.68233 13.6111 1.43359 13.3623 1.43359 13.0556V10.8333C1.43359 10.5266 1.68233 10.2778 1.98915 10.2778H3.65581V6.94444C3.65581 4.48984 5.6457 2.5 8.10026 2.5H11.9892C12.2959 2.5 12.5447 2.74873 12.5447 3.05556V5.27778C12.5447 5.5846 12.2959 5.83333 11.9892 5.83333Z" fill="#ffffff"></path></svg>