<svg width="147" height="26" viewBox="0 0 147 26" fill="none" xmlns="http://www.w3.org/2000/svg">
<path d="M0.277398 19.884H4.3814C4.3814 20.316 4.3454 20.964 4.3454 21.504C4.3454 24.132 5.5694 25.356 7.2614 25.356C8.6294 25.356 10.1414 24.384 10.1414 21.576C10.1414 18.732 8.0534 16.464 5.8574 14.16C3.4094 11.676 0.817399 9.084 0.817399 5.664C0.817399 2.136 3.9854 0.192 7.2974 0.192C10.8614 0.192 13.5974 2.712 13.5974 5.988H9.7454C9.7454 5.592 9.7814 5.052 9.7814 4.584C9.7814 1.92 8.8454 0.696 7.1534 0.696C5.8214 0.696 4.5254 1.488 4.5254 4.26C4.5254 6.96 6.5414 9.192 8.6654 11.46C11.1134 14.052 13.7774 16.68 13.7774 19.992C13.7774 23.664 10.5734 25.86 7.0454 25.86C3.2294 25.86 0.277398 23.304 0.277398 19.884ZM20.4596 25.5V0.551999H28.5596C32.7716 0.551999 35.9756 3.432 35.9756 7.464C35.9756 11.46 32.7716 14.232 28.5596 14.232H24.4916V25.5H20.4596ZM26.3636 1.02H24.4916V13.764H26.3636C29.7116 13.764 31.8716 10.992 31.8716 7.464C31.8716 3.936 29.7116 1.02 26.3636 1.02ZM42.4815 25.5V0.551999H50.6175C54.5775 0.551999 57.5295 3.252 57.5295 6.996C57.5295 10.092 55.4775 12.432 52.4535 13.08L58.3575 25.5H54.2175L48.6015 13.296H46.5135V25.5H42.4815ZM48.4215 1.02H46.5135V12.828H48.4215C51.4815 12.828 53.4255 10.272 53.4255 6.996C53.4255 3.684 51.4815 1.02 48.4215 1.02ZM64.9252 25.5V0.551999H73.0612C77.0212 0.551999 79.9732 3.252 79.9732 6.996C79.9732 10.092 77.9212 12.432 74.8972 13.08L80.8012 25.5H76.6612L71.0452 13.296H68.9572V25.5H64.9252ZM70.8652 1.02H68.9572V12.828H70.8652C73.9252 12.828 75.8692 10.272 75.8692 6.996C75.8692 3.684 73.9252 1.02 70.8652 1.02ZM91.761 25.5H87.729V0.551999H91.761V25.5ZM99.7932 25.5V0.551999H103.933L112.681 23.988V0.551999H113.185V25.5H109.045L100.297 2.136V25.5H99.7932ZM133.034 15.06V14.592H146.102C145.31 21.324 140.018 25.86 133.178 25.86C125.726 25.86 120.146 20.532 120.146 13.008C120.146 5.484 125.726 0.192 133.178 0.192C139.298 0.192 144.158 3.792 145.706 9.264H141.71C140.738 4.044 137.606 0.659998 133.178 0.659998C128.03 0.659998 124.286 5.16 124.286 13.008C124.286 20.352 127.742 25.392 133.178 25.392C137.822 25.392 141.314 21.72 141.962 15.06H133.034Z" fill="white"/>
</svg>
