<svg width="147" height="26" viewBox="0 0 147 26" fill="none" xmlns="http://www.w3.org/2000/svg">
<path d="M0.544 19.884H4.648C4.648 20.316 4.612 20.964 4.612 21.504C4.612 24.132 5.836 25.356 7.528 25.356C8.896 25.356 10.408 24.384 10.408 21.576C10.408 18.732 8.32 16.464 6.124 14.16C3.676 11.676 1.084 9.084 1.084 5.664C1.084 2.136 4.252 0.192 7.564 0.192C11.128 0.192 13.864 2.712 13.864 5.988H10.012C10.012 5.592 10.048 5.052 10.048 4.584C10.048 1.92 9.112 0.696 7.42 0.696C6.088 0.696 4.792 1.488 4.792 4.26C4.792 6.96 6.808 9.192 8.932 11.46C11.38 14.052 14.044 16.68 14.044 19.992C14.044 23.664 10.84 25.86 7.312 25.86C3.496 25.86 0.544 23.304 0.544 19.884ZM20.7262 25.5V0.551999H28.8262C33.0382 0.551999 36.2422 3.432 36.2422 7.464C36.2422 11.46 33.0382 14.232 28.8262 14.232H24.7582V25.5H20.7262ZM26.6302 1.02H24.7582V13.764H26.6302C29.9782 13.764 32.1382 10.992 32.1382 7.464C32.1382 3.936 29.9782 1.02 26.6302 1.02ZM42.7481 25.5V0.551999H50.8841C54.8441 0.551999 57.7961 3.252 57.7961 6.996C57.7961 10.092 55.7441 12.432 52.7201 13.08L58.6241 25.5H54.4841L48.8681 13.296H46.7801V25.5H42.7481ZM48.6881 1.02H46.7801V12.828H48.6881C51.7481 12.828 53.6921 10.272 53.6921 6.996C53.6921 3.684 51.7481 1.02 48.6881 1.02ZM65.1918 25.5V0.551999H73.3278C77.2878 0.551999 80.2398 3.252 80.2398 6.996C80.2398 10.092 78.1878 12.432 75.1638 13.08L81.0678 25.5H76.9278L71.3118 13.296H69.2238V25.5H65.1918ZM71.1318 1.02H69.2238V12.828H71.1318C74.1918 12.828 76.1358 10.272 76.1358 6.996C76.1358 3.684 74.1918 1.02 71.1318 1.02ZM92.0276 25.5H87.9956V0.551999H92.0276V25.5ZM100.06 25.5V0.551999H104.2L112.948 23.988V0.551999H113.452V25.5H109.312L100.564 2.136V25.5H100.06ZM133.3 15.06V14.592H146.368C145.576 21.324 140.284 25.86 133.444 25.86C125.992 25.86 120.412 20.532 120.412 13.008C120.412 5.484 125.992 0.192 133.444 0.192C139.564 0.192 144.424 3.792 145.972 9.264H141.976C141.004 4.044 137.872 0.659998 133.444 0.659998C128.296 0.659998 124.552 5.16 124.552 13.008C124.552 20.352 128.008 25.392 133.444 25.392C138.088 25.392 141.58 21.72 142.228 15.06H133.3Z" fill="#2E4343"/>
</svg>
