<svg xmlns="http://www.w3.org/2000/svg" width="100%" viewBox="0 0 26 25" fill="none"><path fill-rule="evenodd" clip-rule="evenodd" d="M17.5528 2.5H8.66396C5.59571 2.5 3.1084 4.98731 3.1084 8.05556V16.9444C3.1084 20.0127 5.59571 22.5 8.66396 22.5H17.5528C20.621 22.5 23.1084 20.0127 23.1084 16.9444V8.05556C23.1084 4.98731 20.621 2.5 17.5528 2.5ZM21.1639 16.9444C21.1578 18.9362 19.5446 20.5494 17.5528 20.5556H8.66396C6.67213 20.5494 5.05895 18.9362 5.05285 16.9444V8.05556C5.05895 6.06372 6.67213 4.45054 8.66396 4.44444H17.5528C19.5446 4.45054 21.1578 6.06372 21.1639 8.05556V16.9444ZM18.3861 8.33333C18.9998 8.33333 19.4972 7.83587 19.4972 7.22222C19.4972 6.60858 18.9998 6.11111 18.3861 6.11111C17.7725 6.11111 17.275 6.60858 17.275 7.22222C17.275 7.83587 17.7725 8.33333 18.3861 8.33333ZM13.1084 7.5C10.347 7.5 8.1084 9.73858 8.1084 12.5C8.1084 15.2614 10.347 17.5 13.1084 17.5C15.8698 17.5 18.1084 15.2614 18.1084 12.5C18.1114 11.173 17.5855 9.89952 16.6471 8.9612C15.7088 8.02288 14.4354 7.49704 13.1084 7.5ZM10.0528 12.5C10.0528 14.1876 11.4208 15.5556 13.1084 15.5556C14.7959 15.5556 16.1639 14.1876 16.1639 12.5C16.1639 10.8124 14.7959 9.44444 13.1084 9.44444C11.4208 9.44444 10.0528 10.8124 10.0528 12.5Z" fill="#ffffff"></path></svg>