<svg xmlns="http://www.w3.org/2000/svg" width="100%" viewBox="0 0 25 25" fill="none"><path fill-rule="evenodd" clip-rule="evenodd" d="M5.05523 2.5H20.6108C21.8381 2.5 22.833 3.49492 22.833 4.72222V20.2778C22.833 21.5051 21.8381 22.5 20.6108 22.5H5.05523C3.82793 22.5 2.83301 21.5051 2.83301 20.2778V4.72222C2.83301 3.49492 3.82793 2.5 5.05523 2.5ZM8.38857 19.1667C8.69539 19.1667 8.94412 18.9179 8.94412 18.6111V10.8333C8.94412 10.5266 8.69539 10.2778 8.38857 10.2778H6.7219C6.41508 10.2778 6.16634 10.5266 6.16634 10.8333V18.6111C6.16634 18.9179 6.41508 19.1667 6.7219 19.1667H8.38857ZM7.55523 9.16667C6.63475 9.16667 5.88857 8.42048 5.88857 7.5C5.88857 6.57952 6.63475 5.83333 7.55523 5.83333C8.47571 5.83333 9.2219 6.57952 9.2219 7.5C9.2219 8.42048 8.47571 9.16667 7.55523 9.16667ZM18.9441 19.1667C19.2509 19.1667 19.4997 18.9179 19.4997 18.6111V13.5C19.5358 11.7342 18.2303 10.2272 16.4774 10.0111C15.2519 9.89917 14.0644 10.4716 13.3886 11.5V10.8333C13.3886 10.5266 13.1398 10.2778 12.833 10.2778H11.1663C10.8596 10.2778 10.6108 10.5266 10.6108 10.8333V18.6111C10.6108 18.9179 10.8596 19.1667 11.1663 19.1667H12.833C13.1398 19.1667 13.3886 18.9179 13.3886 18.6111V14.4444C13.3886 13.524 14.1348 12.7778 15.0552 12.7778C15.9757 12.7778 16.7219 13.524 16.7219 14.4444V18.6111C16.7219 18.9179 16.9707 19.1667 17.2774 19.1667H18.9441Z" fill="#ffffff"></path></svg>