<svg xmlns="http://www.w3.org/2000/svg" width="100%" viewBox="0 0 60 60" fill="none"><g clip-path="url(#clip0_219_975)"><path d="M20.9391 34.4665C22.8545 34.8455 24.7941 35.022 26.7379 35.1463C27.4028 35.177 28.0631 35.1524 28.7007 34.9168C30.4651 34.333 31.4012 36.8191 29.6848 37.5419C29.3618 37.663 29.0205 37.6565 28.7193 37.5487C28.3918 37.4311 28.0658 37.3831 27.7403 37.3525C26.7629 37.283 25.7901 37.4312 24.8156 37.5059C23.5062 37.64 22.2047 37.8015 20.9082 38.0682C19.9119 38.2755 18.9361 37.6358 18.7288 36.6394C18.438 35.3529 19.6637 34.1556 20.9391 34.4665Z" fill="#2e4343"></path><path d="M45.2401 49.4667C45.9735 52.9663 44.505 57.3404 40.8916 58.6862C40.4728 58.8464 39.9665 58.9646 39.5347 59.0386C37.0122 59.513 34.4332 59.7805 31.8775 59.9058C27.1481 60.1297 22.0277 59.899 17.2865 59.7882C15.328 59.7058 13.3828 59.3241 11.4841 58.9196C11.1983 58.858 10.6191 58.7269 10.3328 58.6611C9.6103 58.4847 8.909 58.1708 8.28683 57.7617C4.34967 55.0635 3.90171 48.9946 3.71489 44.6897C3.61596 41.6798 3.77624 38.658 3.94937 35.6627C4.07352 33.1794 4.46253 29.3859 4.26767 26.9396C4.17822 26.3624 4.58884 25.8138 5.17643 25.7621C5.73185 25.7099 6.22472 26.116 6.28115 26.6699C6.41826 28.2481 6.34406 29.7313 6.28655 31.2787C6.01833 37.1457 5.51129 43.0839 6.45344 48.9123C6.97152 51.6693 7.93228 55.3789 10.9754 56.0092L12.036 56.1885C13.6297 56.4548 15.2533 56.6372 16.862 56.6652C16.9889 56.6694 17.249 56.664 17.3766 56.6562C18.616 56.6016 20.5898 56.5442 21.8299 56.5105C26.8297 56.395 32.2006 56.4532 37.1681 55.9832C37.7835 55.9343 38.4423 55.8481 39.0584 55.7748L39.3067 55.748C39.3711 55.7393 39.4412 55.7353 39.5017 55.7247L39.6814 55.6933L39.8576 55.6498C39.9164 55.6349 39.9725 55.613 40.0309 55.5962C42.2854 54.7577 43.1884 51.9597 43.2241 49.7186C43.2034 48.4623 44.9585 48.2467 45.2401 49.4667Z" fill="#2e4343"></path><path d="M33.8397 27.374C28.5352 27.0588 23.1318 27.2435 17.8292 27.5165C12.4413 27.7792 7.06312 28.131 1.64713 28.1077C0.931903 28.1048 0.358114 27.5139 0.36964 26.8021C0.375763 24.3425 0.046186 21.7499 0.545415 19.2525C1.36389 15.4707 4.52556 14.5 7.98258 14.4219C8.75723 14.395 9.50908 14.4273 10.2606 14.4618C12.7693 14.3713 16.8096 14.2103 19.8601 14.116C23.1222 14.0198 26.406 13.9742 29.7105 14.0934C30.7047 14.1291 31.4816 14.9638 31.446 15.9579C31.4103 16.952 30.5756 17.729 29.5815 17.6933C26.3848 17.4911 23.1581 17.4447 19.9138 17.4532C16.6425 17.4572 13.3497 17.531 10.0444 17.5275C8.27181 17.4107 5.34584 17.1929 4.01948 18.4414C3.83242 18.6319 3.65473 18.8722 3.54007 19.1343L3.46178 19.3041L3.39551 19.4914C3.37702 19.5382 3.34436 19.6365 3.33295 19.6859C3.07097 20.6128 3.03039 21.5162 2.99749 22.5224C2.96652 23.9013 2.99941 25.3486 2.97612 26.8073L1.69863 25.5017C4.3505 25.5885 7.02074 25.5747 9.69806 25.5305C17.7566 25.3974 25.9243 24.9667 33.9745 25.7588C35.0187 25.8828 34.9257 27.4121 33.8397 27.374Z" fill="#2e4343"></path><path d="M44.8905 38.9322L43.9364 38.9723C43.6273 38.9853 43.3466 38.8474 43.1658 38.6239L43.0677 38.501L42.6126 37.9311C40.8903 35.8031 38.8709 33.9666 36.8894 32.069C33.8209 29.1323 30.7088 26.0009 29.0918 21.967C28.5086 20.5456 28.1289 19.0098 27.9646 17.4796C27.9237 17.0601 27.8534 16.63 27.8492 16.1993C27.6604 12.4181 29.2407 8.66792 31.7517 5.89515C32.9551 4.54034 34.388 3.35014 35.9032 2.36081C40.1643 -0.305823 45.8026 -0.843112 50.3532 1.41746C51.2633 1.86302 52.1289 2.42505 52.9131 3.06631C53.1326 3.23812 53.6165 3.68921 53.8351 3.87507C54.4369 4.38618 55.047 5.05302 55.5725 5.65178C58.2826 8.83529 59.9767 13.021 59.7019 17.2409C59.445 21.8918 56.7865 26.1227 53.8 29.4881C51.1382 32.5584 48.1069 35.2464 45.7455 38.4938C45.4261 38.9726 44.7678 39.096 44.3011 38.7549C43.8472 38.4255 43.7443 37.7933 44.0737 37.3395C48.1271 31.6886 54.4275 27.4005 56.7422 20.6406C58.0247 16.892 57.4438 12.9912 55.3947 9.61968C54.6443 8.39514 53.7233 7.25092 52.6756 6.26771C52.2723 5.8805 51.7196 5.44203 51.2867 5.0828C47.2751 1.89676 41.3537 2.31014 37.3577 5.29219C36.7918 5.70641 36.2614 6.18799 35.737 6.65156C33.2852 8.93975 31.4928 12.0584 31.4309 15.4188C31.4158 15.6031 31.4438 15.8716 31.4436 16.0591C31.4364 16.3638 31.5134 16.7393 31.5386 17.0544C31.684 18.2966 31.9455 19.5046 32.3999 20.6741C33.8001 24.2541 36.5022 27.1154 39.0722 29.9338C41.1624 32.2455 43.2662 34.5344 44.8597 37.287L43.9775 36.8083L44.9289 36.9011L44.9466 36.9028C46.1973 37.0598 46.1486 38.8436 44.8905 38.9322Z" fill="#2e4343"></path><path d="M43.7713 22.6741C36.6383 22.2522 35.1035 12.9932 41.7437 10.369C45.5343 8.92567 49.8415 12.0606 50.0445 16.0424C50.222 17.8689 47.6225 18.1553 47.4033 16.3399C47.3946 16.2215 47.4035 16.0992 47.4246 15.9877C47.5583 15.3076 47.3886 14.5773 46.9923 13.9545C46.3927 13.0199 45.29 12.3919 44.1792 12.3181C43.4553 12.2642 42.7493 12.4418 42.1498 12.8383C41.1985 13.4106 40.4924 14.3207 40.3353 15.3938C40.1123 16.7075 40.7354 18.129 41.9226 18.7401C42.4909 19.0466 43.1382 19.1231 43.7892 19.0722C44.7842 19.0038 45.6462 19.7549 45.7147 20.7499C45.7991 21.8389 44.8579 22.7677 43.7713 22.6741Z" fill="#2e4343"></path></g><defs><clipPath id="clip0_219_975"><rect width="60" height="60" fill="#2e4343"></rect></clipPath></defs></svg>