<svg xmlns="http://www.w3.org/2000/svg" width="100%" viewBox="0 0 60 60" fill="none"><g clip-path="url(#clip0_219_991)"><path d="M42.7869 24.0904C42.5561 21.6878 43.3201 19.9079 40.3779 19.2336C36.7499 18.6311 33.0179 18.2735 29.3458 18.0742C24.9632 17.8835 20.4349 18.4387 16.4993 20.4806C14.0786 22.0004 14.8496 26.7173 16.1221 28.8024C16.3771 29.147 16.862 29.6773 17.4042 29.6128C17.4136 29.6121 17.4232 29.6116 17.4326 29.6109C17.4524 30.0608 17.4861 30.5217 17.4617 30.9532C17.345 32.9269 16.9989 35.1449 17.8204 37.1228C19.9412 42.55 32.7749 42.1368 37.3628 40.4752C39.8992 39.5348 41.0298 36.7888 40.7757 34.2355C40.7071 32.3763 40.2509 30.4899 40.6003 28.6913C40.6052 28.5978 40.6005 28.5098 40.5895 28.426C41.1219 28.2085 41.6469 27.9616 42.1632 27.6817C42.8479 26.6357 42.7682 25.2697 42.7869 24.0904ZM38.0683 30.7059C38.4665 33.7784 39.8141 37.8949 35.5665 38.6325C31.5979 39.3873 27.2476 39.1901 23.3958 37.9948C20.951 37.2911 20.159 35.9571 20.5822 33.4371C20.6344 32.4818 21.0504 30.8697 21.0482 29.501C23.3569 29.5235 25.743 29.7102 28.1339 29.8262C28.1272 29.8482 28.1196 29.87 28.1138 29.8919C27.8028 30.9151 27.0534 31.9636 27.5146 33.0589C28.516 35.3858 32.062 33.88 31.0809 31.5431C30.8191 31.0406 30.6416 30.4429 30.3845 29.9073C32.9598 29.9596 35.514 29.8435 37.9559 29.2638C37.9661 29.7506 38.0081 30.2302 38.0683 30.7059ZM40.5544 26.2222C38.949 26.8873 37.2198 27.2646 35.4486 27.4418C29.7403 27.9997 24.1256 26.8075 18.3799 26.7403C18.1099 25.7053 18.0539 24.4141 18.3122 23.3866C21.7688 21.9258 25.5496 21.5954 29.2736 21.5885C31.0549 21.5656 33.6384 21.6237 35.4446 21.6343C37.1059 21.7019 38.9784 21.4392 40.6141 21.6406C40.7107 23.1474 40.8622 24.7531 40.5544 26.2222Z" fill="#2e4343"></path><path d="M2.76502 20.5512C4.0373 21.1504 5.47382 21.1964 6.84502 21.0522C8.27888 20.9369 13.966 19.5928 11.0195 17.6972C9.37982 17.2393 7.72486 17.3856 6.08749 17.5038C10.9874 6.45208 23.8523 0.655905 35.5579 3.5423C46.0302 5.74153 54.85 14.5259 56.1067 25.2831C56.3165 26.7772 56.3914 28.2911 56.3672 29.8049C56.3405 30.8316 57.1908 31.6814 58.2179 31.6535C61.8953 31.7435 58.8435 21.8853 58.2044 19.8299C51.2818 -0.363462 22.976 -6.34423 8.66169 9.59597C7.82306 10.5638 4.30805 14.7006 3.32965 17.3909C3.04553 17.2048 2.8278 16.9072 2.70526 16.5696C2.13846 14.978 2.33571 13.1245 2.55091 11.4564C2.61236 10.5189 3.46231 9.01496 2.134 8.62564C1.46985 8.45563 0.914258 8.97941 0.844974 9.6232C0.314325 11.885 -0.206805 14.1847 0.0829795 16.6085C0.247813 18.229 1.23127 19.869 2.76502 20.5512Z" fill="#2e4343"></path><path d="M59.5023 44.1722C59.0948 40.8056 55.7444 38.7379 52.5455 39.4195C51.1883 39.5594 49.739 39.9159 48.4872 39.5656C47.625 39.2777 46.6818 39.991 46.7413 40.9058C46.9172 42.8713 49.4654 42.0166 50.6475 41.8927C51.7243 41.7192 52.8633 41.527 53.9114 41.6203C52.3685 43.9866 50.6371 46.1624 48.6433 48.049C45.9521 50.5932 42.803 52.6208 39.3702 54.0004C28.1145 58.632 14.5353 56.3121 7.23442 46.0593C4.33079 42.012 2.88573 37.0383 2.79837 32.0812C2.73909 31.5991 2.8397 30.828 2.81475 30.36C2.87163 29.06 0.791444 28.9865 0.777346 30.3077C0.667939 33.5862 0.987967 36.9053 1.93697 40.0675C6.65401 56.9468 27.9719 64.2056 42.9781 56.3312C48.7289 53.4519 53.4386 48.4135 55.8941 42.4987C57.6794 44.3088 55.8303 47.9201 56.2366 50.3806C56.7981 52.6921 60.3255 51.8574 59.7811 49.5342C59.4434 47.8953 59.8308 45.8845 59.5023 44.1722Z" fill="#2e4343"></path></g><defs><clipPath id="clip0_219_991"><rect width="60" height="60" fill="#2e4343"></rect></clipPath></defs></svg>