<svg xmlns="http://www.w3.org/2000/svg" width="100%" viewBox="0 0 60 60" fill="none"><g clip-path="url(#clip0_219_967)"><path d="M28.9378 13.8673C28.824 12.3986 28.6228 7.83418 27.3739 7.08496C25.2999 6.63563 23.0993 6.36505 20.9933 6.13973C15.8862 5.6 10.7265 5.44732 5.59936 5.78804C4.68282 5.84033 3.43568 5.98217 2.5164 6.0803C-0.000981212 7.05507 0.605439 10.4225 0.725604 12.5138C0.891143 13.6097 0.190044 15.5213 1.90093 15.4677C2.01371 15.4675 2.12804 15.4678 2.2438 15.4684C2.25857 16.1872 2.36777 16.9579 2.29227 17.5978C2.2176 18.8984 1.93821 20.4382 2.00097 21.8651C2.12959 25.2043 4.36174 28.3921 7.33382 29.8978C9.46427 30.6819 11.8788 30.4015 14.0808 30.5429C22.6098 30.8964 27.8579 28.2084 26.8182 18.8408C26.7543 17.9831 26.6585 17.1359 26.5485 16.2945C28.1017 16.2321 29.1099 16.061 28.9378 13.8673ZM3.35874 8.48657C10.8728 7.43557 18.5575 7.73485 26.0551 8.83158C26.1317 10.2597 26.0981 11.7227 26.0339 13.1563C25.8758 13.1515 25.1974 13.0906 25.0278 13.0779C17.895 12.5507 10.6572 12.0957 3.50642 12.4794C3.39328 11.1644 2.95788 9.65582 3.35874 8.48657ZM24.7418 22.9098C23.8647 28.9068 16.6416 28.0218 12.1154 27.7054C9.08603 27.5852 7.91059 27.4137 6.19946 24.7842C4.4669 22.9672 5.99498 18.3846 5.85028 15.5591C8.29573 15.6561 10.9289 15.8128 13.1802 15.9427C13.4514 16.8927 13.7255 17.8658 14.0816 18.777C14.9081 20.0043 15.8328 18.9372 15.9499 17.8502C15.9501 17.8502 16.1657 16.9709 16.1657 16.9709C16.2148 16.6815 16.2954 16.3933 16.3742 16.1046C19.1924 16.2306 22.0153 16.3289 24.8375 16.3278C25.0053 18.5339 25.1184 20.7902 24.7418 22.9098Z" fill="#2e4343"></path><path d="M59.9179 38.166C59.4941 33.3301 56.4754 28.5871 51.5307 27.4735C49.3176 23.9568 50.0605 18.8608 46.7198 15.8911C44.672 14.2257 41.6798 13.7923 39.0803 14.1814C34.6986 15.2374 35.1876 20.8305 34.9339 24.292C34.8636 25.7802 34.7944 27.2531 34.62 28.6986C23.7056 28.3591 12.7639 27.6539 1.90464 27.7206C1.19282 27.7222 0.580091 28.2776 0.527333 29.0022C0.332497 30.9323 0.11825 32.9087 0.0334556 34.9212C-0.0709888 38.0737 -0.00203403 41.2986 1.30441 44.2721C2.02659 45.9098 3.26051 47.3877 4.84302 48.2746C5.76289 48.765 7.57226 49.4545 9.10642 49.5396C10.2048 52.9132 14.1323 55.0569 17.8539 52.9039C19.3352 52.1341 20.3296 50.8212 20.7925 49.3195C20.9632 49.3363 21.1455 49.3313 21.3408 49.2961C24.175 48.7807 27.0471 48.4558 29.9317 48.3335C32.4666 48.2229 35.0039 48.2867 37.5409 48.4346C37.77 51.7197 40.8847 54.3722 44.1679 54.3846C47.3259 54.5593 49.4124 52.0014 49.8364 49.1761C53.2495 49.5948 57.577 50.4688 58.8542 46.2344C59.8254 43.6713 60.176 40.8937 59.9179 38.166ZM37.0693 23.005C37.3561 20.7737 36.9476 17.0871 39.5837 16.381C41.7219 16.186 44.8035 16.6139 45.9168 18.8081C47.4137 21.3872 47.067 26.0524 48.7516 28.8408C44.7225 28.9111 40.6834 28.864 36.6394 28.7564C36.8654 26.833 36.9558 24.9138 37.0693 23.005ZM18.8573 49.0367C18.0236 51.4474 14.3684 52.441 12.5817 50.4969C12.0074 49.8748 11.6633 48.9429 11.688 48.0547C11.7321 47.534 11.8332 46.9911 12.17 46.5669C12.9333 45.5321 14.284 45.0369 15.5266 44.9323C18.0737 44.5191 19.7097 46.6296 18.8573 49.0367ZM47.8941 48.0672C47.4585 53.0917 38.9842 50.6893 40.572 46.1677C41.9166 42.1322 48.3277 44.1142 47.8941 48.0672ZM55.7861 45.1692C55.4192 47.3871 52.7389 46.7297 51.0417 46.9203C50.7155 46.9683 50.267 46.9532 49.8221 46.9792C49.6309 45.8483 49.1442 44.7774 48.321 43.9292C46.727 42.202 44.2047 41.306 41.8861 41.8831C39.6435 42.4051 38.0713 44.4456 37.6504 46.6605C32.154 45.5942 26.4951 45.2914 20.913 45.7605C20.8872 45.6483 20.8596 45.5364 20.8281 45.4251C19.5048 39.7792 11.3071 40.4281 9.2822 45.237C9.18704 45.4737 9.10773 45.7104 9.04199 45.9462C1.95764 45.6126 2.85393 35.8497 3.2286 30.4928C14.4804 30.2237 26.2389 30.6749 37.5022 30.9416C41.0045 31.0473 44.8553 31.1516 48.3613 31.2673C49.4303 31.2928 50.4992 31.341 51.5688 31.3754C51.8267 31.3701 52.0426 31.3026 52.218 31.1934C53.3463 31.8581 54.2584 32.8277 54.9222 33.9651C56.8253 37.2862 56.8259 41.5419 55.7861 45.1692Z" fill="#2e4343"></path></g><defs><clipPath id="clip0_219_967"><rect width="60" height="60" fill="#2e4343"></rect></clipPath></defs></svg>