<svg width="32" height="32" viewBox="0 0 32 32" fill="none" xmlns="http://www.w3.org/2000/svg">
<rect width="32" height="32" fill="#2E4343"/>
<path d="M10.0439 21.5699H13.5615C13.5615 21.9401 13.5306 22.4955 13.5306 22.9584C13.5306 25.2108 14.5797 26.2599 16.0299 26.2599C17.2024 26.2599 18.4984 25.4268 18.4984 23.0201C18.4984 20.5825 16.7087 18.6386 14.8266 16.6638C12.7284 14.5348 10.5068 12.3132 10.5068 9.38194C10.5068 6.35809 13.2221 4.69189 16.0608 4.69189C19.1155 4.69189 21.4605 6.85178 21.4605 9.65964H18.159C18.159 9.32022 18.1898 8.85739 18.1898 8.45627C18.1898 6.17296 17.3876 5.12387 15.9374 5.12387C14.7957 5.12387 13.6849 5.80269 13.6849 8.17857C13.6849 10.4927 15.4128 12.4058 17.2333 14.3497C19.3315 16.5713 21.6148 18.8237 21.6148 21.6624C21.6148 24.8097 18.8686 26.6919 15.8448 26.6919C12.5741 26.6919 10.0439 24.5012 10.0439 21.5699Z" fill="white"/>
</svg>
