<svg xmlns="http://www.w3.org/2000/svg" width="100%" viewBox="0 0 16 16" fill="none"><path d="M11.6059 8.87913C11.4325 9.04579 11.3525 9.28579 11.3925 9.52579L11.9792 12.8058C12.0259 13.0791 11.9059 13.3591 11.6792 13.5258C11.4459 13.6925 11.1459 13.7125 10.8992 13.5791L7.94653 12.0391C7.83987 11.9791 7.72653 11.9525 7.6132 11.9458H7.42653C7.35987 11.9525 7.29987 11.9725 7.24653 12.0058L4.2932 13.5525C4.14653 13.6258 3.97987 13.6458 3.81987 13.6258C3.41987 13.5458 3.15987 13.1725 3.22654 12.7725L3.81987 9.49246C3.8532 9.25313 3.77987 9.00579 3.60653 8.83913L1.19254 6.50579C0.985868 6.30579 0.919202 6.01246 1.01254 5.75246C1.0992 5.48579 1.32587 5.29246 1.5992 5.25246L4.91253 4.76579C5.1592 4.73913 5.38587 4.58579 5.4992 4.35979L6.95987 1.36579C6.9932 1.29913 7.0332 1.23246 7.0932 1.18579L7.1532 1.13913C7.17987 1.09913 7.21987 1.07579 7.25987 1.05246L7.32653 1.02579L7.43987 0.979126H7.71987C7.96653 0.999126 8.18653 1.15246 8.30653 1.37913L9.77987 4.35913C9.88653 4.57246 10.0932 4.72579 10.3332 4.76513L13.6465 5.24513C13.9265 5.28513 14.1599 5.47846 14.2532 5.74513C14.3399 6.01179 14.2599 6.30513 14.0599 6.49846L11.5665 8.85846L11.6059 8.87913Z" fill="#2e4343"></path></svg>