<svg xmlns="http://www.w3.org/2000/svg" width="100%" viewBox="0 0 18 18" fill="none"><path d="M17.25 9.75H0.75C0.335999 9.75 0 9.414 0 9C0 8.586 0.335999 8.25 0.75 8.25H17.25C17.664 8.25 18 8.586 18 9C18 9.414 17.664 9.75 17.25 9.75Z" fill="currentColor"></path><path d="M17.25 3.75H0.75C0.335999 3.75 0 3.414 0 3C0 2.586 0.335999 2.25 0.75 2.25H17.25C17.664 2.25 18 2.586 18 3C18 3.414 17.664 3.75 17.25 3.75Z" fill="currentColor"></path><path d="M17.25 15.75H0.75C0.335999 15.75 0 15.414 0 15C0 14.586 0.335999 14.25 0.75 14.25H17.25C17.664 14.25 18 14.586 18 15C18 15.414 17.664 15.75 17.25 15.75Z" fill="currentColor"></path></svg>