<svg xmlns="http://www.w3.org/2000/svg" width="100%" viewBox="0 0 31 25" fill="none"><path d="M27.0741 5.39857C26.4671 6.2084 25.7332 6.91482 24.9009 7.49055C24.9009 7.70209 24.9009 7.91363 24.9009 8.13694C24.9076 11.9786 23.3731 15.6622 20.6414 18.3621C17.9096 21.062 14.2093 22.5522 10.3698 22.4986C8.15015 22.5061 5.95888 21.9993 3.9677 21.0178C3.86033 20.9709 3.79108 20.8647 3.79149 20.7475V20.6182C3.79149 20.4494 3.92824 20.3127 4.09692 20.3127C6.27882 20.2407 8.38287 19.4842 10.1114 18.1502C8.13648 18.1104 6.35956 16.9404 5.5418 15.1415C5.5005 15.0433 5.51335 14.9305 5.57574 14.8441C5.63812 14.7577 5.74101 14.7101 5.84722 14.7185C6.44744 14.7787 7.05367 14.7229 7.63278 14.5539C5.45263 14.1013 3.81448 12.2914 3.58004 10.0761C3.57171 9.96982 3.61933 9.86694 3.70571 9.80446C3.79208 9.74211 3.90472 9.72917 4.00294 9.7706C4.58799 10.0288 5.21956 10.1647 5.85897 10.1701C3.94864 8.9163 3.1235 6.53145 3.85022 4.36435C3.92524 4.15377 4.10547 3.9982 4.32467 3.95483C4.54386 3.91144 4.76972 3.98665 4.91921 4.1528C7.49708 6.89642 11.0391 8.53133 14.7984 8.71281C14.7022 8.32858 14.6549 7.93369 14.6575 7.53755C14.6927 5.46043 15.9779 3.61008 17.9115 2.85277C19.8449 2.09548 22.0442 2.58109 23.4796 4.08228C24.4579 3.89589 25.4038 3.56726 26.2871 3.10681C26.3518 3.06642 26.4338 3.06642 26.4986 3.10681C26.5389 3.17155 26.5389 3.25362 26.4986 3.31836C26.0707 4.29807 25.348 5.11977 24.4311 5.66888C25.234 5.57577 26.0227 5.38637 26.7805 5.10477C26.8443 5.06134 26.9281 5.06134 26.9919 5.10477C27.0454 5.12921 27.0854 5.17597 27.1012 5.23258C27.117 5.2892 27.1071 5.34992 27.0741 5.39857Z" fill="#ffffff"></path></svg>